<svg xmlns="http://www.w3.org/2000/svg" xmlns:xlink="http://www.w3.org/1999/xlink" version="1.2" width="210.00mm" height="297.00mm" viewBox="0.0000 -0.0000 119.5016 169.0094">
<style type="text/css">
<![CDATA[
tspan { white-space: pre; }
]]>
</style>
<g transform="translate(14.2264, 12.0117)">
<line stroke-linejoin="round" stroke-linecap="round" stroke-width="0.1000" stroke="currentColor" x1="0.0500" y1="0" x2="38.9187" y2="0"/>
</g>
<g transform="translate(14.2264, 11.0117)">
<line stroke-linejoin="round" stroke-linecap="round" stroke-width="0.1000" stroke="currentColor" x1="0.0500" y1="0" x2="38.9187" y2="0"/>
</g>
<g transform="translate(14.2264, 10.0117)">
<line stroke-linejoin="round" stroke-linecap="round" stroke-width="0.1000" stroke="currentColor" x1="0.0500" y1="0" x2="38.9187" y2="0"/>
</g>
<g transform="translate(14.2264, 9.0117)">
<line stroke-linejoin="round" stroke-linecap="round" stroke-width="0.1000" stroke="currentColor" x1="0.0500" y1="0" x2="38.9187" y2="0"/>
</g>
<g transform="translate(14.2264, 8.0117)">
<line stroke-linejoin="round" stroke-linecap="round" stroke-width="0.1000" stroke="currentColor" x1="0.0500" y1="0" x2="38.9187" y2="0"/>
</g>
<g transform="translate(45.5315, 10.0117)">
<rect x="0.0000" y="-2.0000" width="0.1900" height="4.0000" ry="0.0000" fill="currentColor"/>
</g>
<a style="color:inherit;" xlink:href="textedit:///home/theo/busic/lilypond/ssbu.ly:8:2:3">
<g transform="translate(46.6215, 12.0117)">
<path transform="scale(0.0040, -0.0040)" d="M218 136c66 0 108 -36 108 -89c0 -89 -113 -183 -218 -183c-66 0 -108 36 -108 89c0 89 113 183 218 183z" fill="currentColor"/>
</g>
</a>
<g transform="translate(44.2683, 7.3017)">
<path transform="scale(0.0040, -0.0040)" d="M0 -212v-5c0 -110 85 -194 144 -285c3 11 5 23 5 35c0 93 -85 187 -149 255zM0 0c0 -175 191 -292 191 -467c0 -29 -8 -57 -19 -84c17 -35 29 -71 29 -111c0 -36 -8 -72 -23 -105c18 -35 29 -72 29 -113c0 -60 -15 -119 -41 -173c-5 -8 -13 -11 -20 -11
c-13 0 -26 11 -23 27c26 49 42 102 42 157c0 91 -94 175 -165 233v-103h-16v750h16zM0 -430v-5c0 -112 88 -194 149 -285c6 19 10 38 10 58c0 90 -91 173 -159 232z" fill="currentColor"/>
</g>
<g transform="translate(44.2033, 10.0117)">
<rect x="-0.0650" y="-2.7500" width="0.1300" height="4.0639" ry="0.0400" fill="currentColor"/>
</g>
<a style="color:inherit;" xlink:href="textedit:///home/theo/busic/lilypond/ssbu.ly:6:31:32">
<g transform="translate(42.9641, 11.5117)">
<path transform="scale(0.0040, -0.0040)" d="M218 136c66 0 108 -36 108 -89c0 -89 -113 -183 -218 -183c-66 0 -108 36 -108 89c0 89 113 183 218 183z" fill="currentColor"/>
</g>
</a>
<g transform="translate(41.7008, 6.8017)">
<path transform="scale(0.0040, -0.0040)" d="M0 -212v-5c0 -110 85 -194 144 -285c3 11 5 23 5 35c0 93 -85 187 -149 255zM0 0c0 -175 191 -292 191 -467c0 -29 -8 -57 -19 -84c17 -35 29 -71 29 -111c0 -36 -8 -72 -23 -105c18 -35 29 -72 29 -113c0 -60 -15 -119 -41 -173c-5 -8 -13 -11 -20 -11
c-13 0 -26 11 -23 27c26 49 42 102 42 157c0 91 -94 175 -165 233v-103h-16v750h16zM0 -430v-5c0 -112 88 -194 149 -285c6 19 10 38 10 58c0 90 -91 173 -159 232z" fill="currentColor"/>
</g>
<g transform="translate(41.6358, 10.0117)">
<rect x="-0.0650" y="-3.2500" width="0.1300" height="4.0639" ry="0.0400" fill="currentColor"/>
</g>
<a style="color:inherit;" xlink:href="textedit:///home/theo/busic/lilypond/ssbu.ly:6:27:28">
<g transform="translate(40.3966, 11.0117)">
<path transform="scale(0.0040, -0.0040)" d="M218 136c66 0 108 -36 108 -89c0 -89 -113 -183 -218 -183c-66 0 -108 36 -108 89c0 89 113 183 218 183z" fill="currentColor"/>
</g>
</a>
<g transform="translate(39.1334, 6.3017)">
<path transform="scale(0.0040, -0.0040)" d="M0 -212v-5c0 -110 85 -194 144 -285c3 11 5 23 5 35c0 93 -85 187 -149 255zM0 0c0 -175 191 -292 191 -467c0 -29 -8 -57 -19 -84c17 -35 29 -71 29 -111c0 -36 -8 -72 -23 -105c18 -35 29 -72 29 -113c0 -60 -15 -119 -41 -173c-5 -8 -13 -11 -20 -11
c-13 0 -26 11 -23 27c26 49 42 102 42 157c0 91 -94 175 -165 233v-103h-16v750h16zM0 -430v-5c0 -112 88 -194 149 -285c6 19 10 38 10 58c0 90 -91 173 -159 232z" fill="currentColor"/>
</g>
<g transform="translate(39.0684, 10.0117)">
<rect x="-0.0650" y="-3.7500" width="0.1300" height="4.0639" ry="0.0400" fill="currentColor"/>
</g>
<a style="color:inherit;" xlink:href="textedit:///home/theo/busic/lilypond/ssbu.ly:6:23:24">
<g transform="translate(37.8292, 10.5117)">
<path transform="scale(0.0040, -0.0040)" d="M218 136c66 0 108 -36 108 -89c0 -89 -113 -183 -218 -183c-66 0 -108 36 -108 89c0 89 113 183 218 183z" fill="currentColor"/>
</g>
</a>
<g transform="translate(22.9264, 10.2017)">
<polygon stroke-linejoin="round" stroke-linecap="round" stroke-width="0.0800" fill="currentColor" stroke="currentColor" points="7.6026 0.8394 7.6026 1.2394 0.0400 0.2000 0.0400 -0.2000"/>
</g>
<g transform="translate(22.9264, 11.0117)">
<polygon stroke-linejoin="round" stroke-linecap="round" stroke-width="0.0800" fill="currentColor" stroke="currentColor" points="7.6026 0.8394 7.6026 1.2394 0.0400 0.2000 0.0400 -0.2000"/>
</g>
<g transform="translate(22.9264, 11.8217)">
<polygon stroke-linejoin="round" stroke-linecap="round" stroke-width="0.0800" fill="currentColor" stroke="currentColor" points="10.1068 1.1800 10.1068 1.5800 0.0400 0.2000 0.0400 -0.2000"/>
</g>
<g transform="translate(51.2931, 7.3017)">
<path transform="scale(0.0040, -0.0040)" d="M0 -212v-5c0 -110 85 -194 144 -285c3 11 5 23 5 35c0 93 -85 187 -149 255zM0 0c0 -175 191 -292 191 -467c0 -29 -8 -57 -19 -84c17 -35 29 -71 29 -111c0 -36 -8 -72 -23 -105c18 -35 29 -72 29 -113c0 -60 -15 -119 -41 -173c-5 -8 -13 -11 -20 -11
c-13 0 -26 11 -23 27c26 49 42 102 42 157c0 91 -94 175 -165 233v-103h-16v750h16zM0 -430v-5c0 -112 88 -194 149 -285c6 19 10 38 10 58c0 90 -91 173 -159 232z" fill="currentColor"/>
</g>
<g transform="translate(51.2281, 10.0117)">
<rect x="-0.0650" y="-2.7500" width="0.1300" height="4.0639" ry="0.0400" fill="currentColor"/>
</g>
<g transform="translate(52.5064, 11.5117)">
<path transform="scale(0.0040, -0.0040)" d="M0 0c0 31 25 56 56 56s56 -25 56 -56s-25 -56 -56 -56s-56 25 -56 56z" fill="currentColor"/>
</g>
<a style="color:inherit;" xlink:href="textedit:///home/theo/busic/lilypond/ssbu.ly:8:7:8">
<g transform="translate(49.9889, 11.5117)">
<path transform="scale(0.0040, -0.0040)" d="M218 136c66 0 108 -36 108 -89c0 -89 -113 -183 -218 -183c-66 0 -108 36 -108 89c0 89 113 183 218 183z" fill="currentColor"/>
</g>
</a>
<g transform="translate(47.9257, 7.8017)">
<path transform="scale(0.0040, -0.0040)" d="M0 -212v-5c0 -110 85 -194 144 -285c3 11 5 23 5 35c0 93 -85 187 -149 255zM0 0c0 -175 191 -292 191 -467c0 -29 -8 -57 -19 -84c17 -35 29 -71 29 -111c0 -36 -8 -72 -23 -105c18 -35 29 -72 29 -113c0 -60 -15 -119 -41 -173c-5 -8 -13 -11 -20 -11
c-13 0 -26 11 -23 27c26 49 42 102 42 157c0 91 -94 175 -165 233v-103h-16v750h16zM0 -430v-5c0 -112 88 -194 149 -285c6 19 10 38 10 58c0 90 -91 173 -159 232z" fill="currentColor"/>
</g>
<g transform="translate(47.8607, 10.0117)">
<rect x="-0.0650" y="-2.2500" width="0.1300" height="4.0639" ry="0.0400" fill="currentColor"/>
</g>
<g transform="translate(49.1389, 11.5117)">
<path transform="scale(0.0040, -0.0040)" d="M0 0c0 31 25 56 56 56s56 -25 56 -56s-25 -56 -56 -56s-56 25 -56 56z" fill="currentColor"/>
</g>
<g transform="translate(25.4956, 10.0117)">
<rect x="-0.0650" y="-1.3139" width="0.1300" height="3.4733" ry="0.0400" fill="currentColor"/>
</g>
<a style="color:inherit;" xlink:href="textedit:///home/theo/busic/lilypond/ssbu.ly:6:8:9">
<g transform="translate(25.4306, 8.5117)">
<path transform="scale(0.0040, -0.0040)" d="M218 136c66 0 108 -36 108 -89c0 -89 -113 -183 -218 -183c-66 0 -108 36 -108 89c0 89 113 183 218 183z" fill="currentColor"/>
</g>
</a>
<g transform="translate(22.9914, 10.0117)">
<rect x="-0.0650" y="-1.8139" width="0.1300" height="3.6327" ry="0.0400" fill="currentColor"/>
</g>
<a style="color:inherit;" xlink:href="textedit:///home/theo/busic/lilypond/ssbu.ly:5:2:3">
<g transform="translate(19.2264, 6.5180)">
<rect x="1.0449" y="-2.6727" width="0.1158" height="2.5129" ry="0.0193" fill="currentColor"/>
</g>
<g transform="translate(19.2264, 6.5180)">
<path transform="scale(0.0036, -0.0036)" d="M215 137c67 0 111 -37 111 -92c0 -90 -111 -182 -215 -182c-67 0 -111 37 -111 92c0 90 111 182 215 182z" fill="currentColor"/>
</g>
<g transform="translate(20.3870, 7.0067)">
<text font-family="serif" font-size="2.2001" text-anchor="start" fill="currentColor">
<tspan> = 145</tspan>
</text>
</g>
</a>
<g transform="translate(19.2264, 10.0117)">
<path transform="scale(0.0040, -0.0040)" d="M250 262c116 0 176 -106 176 -163c0 -40 -30 -72 -67 -72c-31 0 -75 25 -75 75c0 38 27 77 72 77c4 0 9 0 14 -1c-28 37 -72 59 -120 59c-106 0 -113 -73 -113 -186v-51v-51c0 -113 7 -187 113 -187c80 0 139 70 158 151c2 7 7 10 12 10c6 0 13 -4 13 -12
c0 -22 -50 -174 -183 -174c-59 0 -250 19 -250 263c0 62 18 262 250 262z" fill="currentColor"/>
</g>
<g transform="translate(15.0264, 11.0117)">
<path transform="scale(0.0040, -0.0040)" d="M266 -635h-6c-108 0 -195 88 -195 197c0 58 53 103 112 103c54 0 95 -47 95 -103c0 -52 -43 -95 -95 -95c-11 0 -21 2 -31 6c26 -39 68 -65 117 -65h4zM461 -203c68 24 113 90 113 164c0 90 -66 179 -173 190c19 -89 48 -242 60 -354zM74 28c0 -145 141 -247 264 -247
c1 0 47 0 82 6c-7 64 -29 203 -63 364c-79 -8 -124 -61 -124 -119c0 -44 25 -91 81 -123c5 -5 7 -10 7 -15c0 -11 -10 -22 -22 -22c-15 0 -126 62 -126 187c0 88 58 174 160 197c-14 58 -29 117 -46 175c-107 -121 -213 -243 -213 -403zM250 553c-29 96 -52 170 -52 346
c0 115 55 224 149 292c6 5 14 5 20 0c68 -80 133 -245 133 -358c0 -143 -86 -255 -180 -364c21 -68 39 -138 56 -207c2 0 7 1 13 1c155 0 256 -128 256 -261c0 -113 -74 -212 -180 -246c3 -35 5 -70 5 -105c0 -19 -1 -39 -2 -58c-7 -119 -88 -225 -202 -228l1 43
c93 2 153 92 159 191c1 18 2 37 2 55c0 31 -1 61 -4 92c-5 -1 -44 -8 -89 -8c-193 0 -333 180 -333 374c0 177 131 306 248 441zM428 916c0 34 1 66 -20 129c-99 -48 -162 -149 -162 -259c0 -52 12 -115 36 -194c80 97 146 198 146 324z" fill="currentColor"/>
</g>
<a style="color:inherit;" xlink:href="textedit:///home/theo/busic/lilypond/ssbu.ly:6:2:3">
<g transform="translate(22.9264, 8.0117)">
<path transform="scale(0.0040, -0.0040)" d="M218 136c66 0 108 -36 108 -89c0 -89 -113 -183 -218 -183c-66 0 -108 36 -108 89c0 89 113 183 218 183z" fill="currentColor"/>
</g>
</a>
<g transform="translate(30.5040, 10.0117)">
<rect x="-0.0650" y="-0.3139" width="0.1300" height="3.1545" ry="0.0400" fill="currentColor"/>
</g>
<g transform="translate(33.0082, 10.0117)">
<rect x="-0.0650" y="0.1861" width="0.1300" height="2.9951" ry="0.0400" fill="currentColor"/>
</g>
<a style="color:inherit;" xlink:href="textedit:///home/theo/busic/lilypond/ssbu.ly:6:20:21">
<g transform="translate(32.9432, 10.0117)">
<path transform="scale(0.0040, -0.0040)" d="M218 136c66 0 108 -36 108 -89c0 -89 -113 -183 -218 -183c-66 0 -108 36 -108 89c0 89 113 183 218 183z" fill="currentColor"/>
</g>
</a>
<a style="color:inherit;" xlink:href="textedit:///home/theo/busic/lilypond/ssbu.ly:6:16:17">
<g transform="translate(30.4390, 9.5117)">
<path transform="scale(0.0040, -0.0040)" d="M218 136c66 0 108 -36 108 -89c0 -89 -113 -183 -218 -183c-66 0 -108 36 -108 89c0 89 113 183 218 183z" fill="currentColor"/>
</g>
</a>
<g transform="translate(27.9998, 10.0117)">
<rect x="-0.0650" y="-0.8139" width="0.1300" height="3.3139" ry="0.0400" fill="currentColor"/>
</g>
<a style="color:inherit;" xlink:href="textedit:///home/theo/busic/lilypond/ssbu.ly:6:12:13">
<g transform="translate(27.9348, 9.0117)">
<path transform="scale(0.0040, -0.0040)" d="M218 136c66 0 108 -36 108 -89c0 -89 -113 -183 -218 -183c-66 0 -108 36 -108 89c0 89 113 183 218 183z" fill="currentColor"/>
</g>
</a>
<g transform="translate(30.6607, 165.0671)">
<a xlink:href="https://lilypond.org/">
<rect x="0.0000" y="-0.5280" width="58.1802" height="2.2000" fill="none" stroke="none" stroke-width="0.0"/>
</a>
</g>
<g transform="translate(30.6607, 165.0671)">
<text font-family="serif" font-size="2.2001" text-anchor="start" fill="currentColor">
<tspan>Music engraving by LilyPond 2.24.1—www.lilypond.org</tspan>
</text>
</g>
</svg>
